SplineFontDB: 3.0
FontName: Braille-tubes
FullName: Braille-tubes
FamilyName: Braille-tubes-cs
Weight: Medium
Copyright: Created and released into public domain by Timothy Hobbs,,,timothyhobbs@seznam.cz with FontForge 2.0 (http://fontforge.sf.net)
UComments: "2011-9-26: Created." 
Version: 001.000
ItalicAngle: 0
UnderlinePosition: -100
UnderlineWidth: 50
Ascent: 800
Descent: 200
LayerCount: 2
Layer: 0 0 "Back"  1
Layer: 1 0 "Fore"  0
NeedsXUIDChange: 1
XUID: [1021 538 1776246111 2409092]
FSType: 0
OS2Version: 0
OS2_WeightWidthSlopeOnly: 0
OS2_UseTypoMetrics: 1
CreationTime: 1317038799
ModificationTime: 1317737191
OS2TypoAscent: 0
OS2TypoAOffset: 1
OS2TypoDescent: 0
OS2TypoDOffset: 1
OS2TypoLinegap: 90
OS2WinAscent: 0
OS2WinAOffset: 1
OS2WinDescent: 0
OS2WinDOffset: 1
HheadAscent: 0
HheadAOffset: 1
HheadDescent: 0
HheadDOffset: 1
MarkAttachClasses: 1
DEI: 91125
Encoding: UnicodeFull
UnicodeInterp: none
NameList: Adobe Glyph List
DisplaySize: -24
AntiAlias: 1
FitToEm: 1
WinInfo: 0 40 15
BeginPrivate: 0
EndPrivate
BeginChars: 1114112 108

StartChar: A
Encoding: 65 65 1
Width: 1779
VWidth: 0
Flags: HW
LayerCount: 2
Fore
SplineSet
0 800 m 5
 1057 800 l 5
 1057 633 l 5
 0 633 l 5
 0 800 l 5
0 167 m 5
 1057 167 l 5
 1057 0 l 5
 0 0 l 5
 0 167 l 5
1257 801 m 1
 1523 801 l 1
 1523 631 l 1
 1257 631 l 1
 1257 801 l 1
EndSplineSet
Validated: 1
EndChar

StartChar: B
Encoding: 66 66 2
Width: 1779
VWidth: 0
Flags: HW
LayerCount: 2
Fore
SplineSet
0 800 m 1
 1057 800 l 1
 1057 633 l 1
 0 633 l 1
 0 800 l 1
0 167 m 1
 1057 167 l 1
 1057 0 l 1
 0 0 l 1
 0 167 l 1
1257 801 m 1
 1523 801 l 1
 1523 165 l 1
 1257 165 l 1
 1257 801 l 1
EndSplineSet
Validated: 1
EndChar

StartChar: C
Encoding: 67 67 3
Width: 1779
VWidth: 0
Flags: HW
LayerCount: 2
Fore
SplineSet
0 800 m 1
 1057 800 l 1
 1057 633 l 1
 0 633 l 1
 0 800 l 1
0 167 m 1
 1057 167 l 1
 1057 0 l 1
 0 0 l 1
 0 167 l 1
1257 801 m 1
 1779 801 l 1
 1779 631 l 1
 1257 631 l 1
 1257 801 l 1
EndSplineSet
Validated: 1
EndChar

StartChar: D
Encoding: 68 68 4
Width: 1779
VWidth: 0
Flags: HW
LayerCount: 2
Fore
SplineSet
1257 801 m 1
 1779 801 l 1
 1779 635 l 1
 1779 631 l 1
 1779 165 l 1
 1523 165 l 1
 1523 631 l 1
 1257 631 l 1
 1257 801 l 1
0 167 m 1
 1057 167 l 1
 1057 0 l 1
 0 0 l 1
 0 167 l 1
0 800 m 1
 1057 800 l 1
 1057 633 l 1
 0 633 l 1
 0 800 l 1
EndSplineSet
Validated: 1
EndChar

StartChar: E
Encoding: 69 69 5
Width: 1779
VWidth: 0
Flags: HW
LayerCount: 2
Fore
SplineSet
1257 801 m 1
 1523 801 l 1
 1523 635 l 1
 1779 635 l 1
 1779 165 l 1
 1523 165 l 1
 1523 631 l 1
 1257 631 l 1
 1257 801 l 1
0 167 m 1
 1057 167 l 1
 1057 0 l 1
 0 0 l 1
 0 167 l 1
0 800 m 1
 1057 800 l 1
 1057 633 l 1
 0 633 l 1
 0 800 l 1
EndSplineSet
Validated: 1
EndChar

StartChar: a
Encoding: 97 97 6
Width: 565
VWidth: 0
Flags: HW
LayerCount: 2
Fore
SplineSet
0 801 m 1
 267 801 l 1
 267 633 l 1
 0 633 l 1
 0 801 l 1
EndSplineSet
Validated: 1
EndChar

StartChar: e
Encoding: 101 101 7
Width: 565
VWidth: 0
Flags: HW
LayerCount: 2
Fore
SplineSet
0 801 m 1
 267 801 l 1
 267 633 l 1
 0 633 l 1
 0 801 l 1
266 628 m 1
 565 628 l 1
 565 167 l 1
 266 167 l 1
 266 628 l 1
EndSplineSet
Validated: 1
EndChar

StartChar: b
Encoding: 98 98 8
Width: 565
VWidth: 0
Flags: HW
LayerCount: 2
Fore
SplineSet
0 801 m 1
 267 801 l 1
 267 166 l 1
 0 166 l 1
 0 801 l 1
EndSplineSet
Validated: 1
EndChar

StartChar: c
Encoding: 99 99 9
Width: 565
VWidth: 0
Flags: HW
LayerCount: 2
Fore
SplineSet
0 801 m 1
 565 801 l 1
 565 633 l 1
 0 633 l 1
 0 801 l 1
EndSplineSet
Validated: 1
EndChar

StartChar: d
Encoding: 100 100 10
Width: 565
VWidth: 0
Flags: HW
LayerCount: 2
Fore
SplineSet
0 801 m 1
 267 801 l 1
 267 633 l 1
 0 633 l 1
 0 801 l 1
290 801 m 1
 557 801 l 1
 557 166 l 1
 290 166 l 1
 290 801 l 1
EndSplineSet
Validated: 1
EndChar

StartChar: z
Encoding: 122 122 11
Width: 565
VWidth: 0
Flags: HW
LayerCount: 2
Fore
SplineSet
0 0 m 1
 0 168 l 1
 267 168 l 1
 267 0 l 1
 0 0 l 1
290 0 m 1
 290 635 l 1
 557 635 l 1
 557 0 l 1
 290 0 l 1
0 633 m 1
 0 801 l 1
 267 801 l 1
 267 633 l 1
 0 633 l 1
EndSplineSet
Validated: 1
EndChar

StartChar: f
Encoding: 102 102 12
Width: 565
VWidth: 0
Flags: HW
LayerCount: 2
Fore
SplineSet
557 801 m 1
 557 633 l 1
 290 633 l 1
 290 801 l 1
 557 801 l 1
267 801 m 1
 267 166 l 1
 0 166 l 1
 0 801 l 1
 267 801 l 1
EndSplineSet
Validated: 1
EndChar

StartChar: g
Encoding: 103 103 13
Width: 565
VWidth: 0
Flags: HW
LayerCount: 2
Fore
SplineSet
557 801 m 1
 557 166 l 1
 290 166 l 1
 290 801 l 1
 557 801 l 1
267 801 m 1
 267 166 l 1
 0 166 l 1
 0 801 l 1
 267 801 l 1
EndSplineSet
Validated: 1
EndChar

StartChar: h
Encoding: 104 104 14
Width: 565
VWidth: 0
Flags: HW
LayerCount: 2
Fore
SplineSet
557 624 m 1
 557 166 l 1
 290 166 l 1
 290 624 l 1
 557 624 l 1
267 801 m 1
 267 166 l 1
 0 166 l 1
 0 801 l 1
 267 801 l 1
EndSplineSet
Validated: 1
EndChar

StartChar: i
Encoding: 105 105 15
Width: 565
VWidth: 0
Flags: HW
LayerCount: 2
Fore
SplineSet
565 801 m 1
 565 633 l 1
 298 633 l 1
 298 801 l 1
 565 801 l 1
299 628 m 1
 299 167 l 1
 0 167 l 1
 0 628 l 1
 299 628 l 1
EndSplineSet
Validated: 1
EndChar

StartChar: j
Encoding: 106 106 16
Width: 565
VWidth: 0
Flags: HW
LayerCount: 2
Fore
SplineSet
0 624 m 1
 267 624 l 1
 267 166 l 1
 0 166 l 1
 0 624 l 1
290 801 m 1
 557 801 l 1
 557 166 l 1
 290 166 l 1
 290 801 l 1
EndSplineSet
Validated: 1
EndChar

StartChar: k
Encoding: 107 107 17
Width: 565
VWidth: 0
Flags: HW
LayerCount: 2
Fore
SplineSet
0 0 m 1
 0 168 l 1
 267 168 l 1
 267 0 l 1
 0 0 l 1
0 633 m 1
 0 801 l 1
 267 801 l 1
 267 633 l 1
 0 633 l 1
EndSplineSet
Validated: 1
EndChar

StartChar: l
Encoding: 108 108 18
Width: 565
VWidth: 0
Flags: HW
LayerCount: 2
Fore
SplineSet
0 801 m 1
 267 801 l 1
 267 0 l 1
 0 0 l 1
 0 801 l 1
EndSplineSet
Validated: 1
EndChar

StartChar: m
Encoding: 109 109 19
Width: 565
VWidth: 0
Flags: HW
LayerCount: 2
Fore
SplineSet
0 633 m 1
 0 801 l 1
 565 801 l 1
 565 633 l 1
 0 633 l 1
0 0 m 1
 0 168 l 1
 267 168 l 1
 267 0 l 1
 0 0 l 1
EndSplineSet
Validated: 1
EndChar

StartChar: n
Encoding: 110 110 20
Width: 565
VWidth: 0
Flags: HW
LayerCount: 2
Fore
SplineSet
0 801 m 1
 267 801 l 1
 267 633 l 1
 0 633 l 1
 0 801 l 1
290 801 m 1
 557 801 l 1
 557 166 l 1
 290 166 l 1
 290 801 l 1
0 168 m 1
 267 168 l 1
 267 0 l 1
 0 0 l 1
 0 168 l 1
EndSplineSet
Validated: 1
EndChar

StartChar: o
Encoding: 111 111 21
Width: 565
VWidth: 0
Flags: HW
LayerCount: 2
Fore
SplineSet
290 633 m 1
 557 633 l 1
 557 175 l 1
 290 175 l 1
 290 633 l 1
0 633 m 1
 0 801 l 1
 267 801 l 1
 267 633 l 1
 0 633 l 1
0 0 m 1
 0 168 l 1
 267 168 l 1
 267 0 l 1
 0 0 l 1
EndSplineSet
Validated: 1
EndChar

StartChar: p
Encoding: 112 112 22
Width: 565
VWidth: 0
Flags: HW
LayerCount: 2
Fore
SplineSet
0 801 m 1
 267 801 l 1
 267 0 l 1
 0 0 l 1
 0 801 l 1
557 801 m 1
 557 633 l 1
 290 633 l 1
 290 801 l 1
 557 801 l 1
EndSplineSet
Validated: 1
EndChar

StartChar: q
Encoding: 113 113 23
Width: 565
VWidth: 0
Flags: HW
LayerCount: 2
Fore
SplineSet
557 801 m 1
 557 166 l 1
 290 166 l 1
 290 801 l 1
 557 801 l 1
267 801 m 1
 267 0 l 1
 0 0 l 1
 0 801 l 1
 267 801 l 1
EndSplineSet
Validated: 1
EndChar

StartChar: r
Encoding: 114 114 24
Width: 565
VWidth: 0
Flags: HW
LayerCount: 2
Fore
SplineSet
290 633 m 1
 557 633 l 1
 557 175 l 1
 290 175 l 1
 290 633 l 1
0 0 m 1
 0 801 l 1
 267 801 l 1
 267 0 l 1
 0 0 l 1
EndSplineSet
Validated: 1
EndChar

StartChar: s
Encoding: 115 115 25
Width: 565
VWidth: 0
Flags: HW
LayerCount: 2
Fore
SplineSet
0 624 m 1
 267 624 l 1
 267 0 l 1
 0 0 l 1
 0 624 l 1
557 801 m 1
 557 633 l 1
 290 633 l 1
 290 801 l 1
 557 801 l 1
EndSplineSet
Validated: 1
EndChar

StartChar: t
Encoding: 116 116 26
Width: 565
VWidth: 0
Flags: HW
LayerCount: 2
Fore
SplineSet
0 624 m 1
 267 624 l 1
 267 0 l 1
 0 0 l 1
 0 624 l 1
290 801 m 1
 557 801 l 1
 557 166 l 1
 290 166 l 1
 290 801 l 1
EndSplineSet
Validated: 1
EndChar

StartChar: u
Encoding: 117 117 27
Width: 565
VWidth: 0
Flags: HW
LayerCount: 2
Fore
SplineSet
0 168 m 1
 565 168 l 1
 565 0 l 1
 0 0 l 1
 0 168 l 1
0 801 m 1
 267 801 l 1
 267 633 l 1
 0 633 l 1
 0 801 l 1
EndSplineSet
Validated: 1
EndChar

StartChar: v
Encoding: 118 118 28
Width: 565
VWidth: 0
Flags: HW
LayerCount: 2
Fore
SplineSet
0 0 m 1
 0 801 l 1
 267 801 l 1
 267 0 l 1
 0 0 l 1
557 0 m 1
 290 0 l 1
 290 168 l 1
 557 168 l 1
 557 0 l 1
EndSplineSet
Validated: 1
EndChar

StartChar: w
Encoding: 119 119 29
Width: 565
VWidth: 0
Flags: HW
LayerCount: 2
Fore
SplineSet
557 0 m 1
 290 0 l 1
 290 635 l 1
 557 635 l 1
 557 0 l 1
267 0 m 1
 0 0 l 1
 0 801 l 1
 267 801 l 1
 267 0 l 1
EndSplineSet
Validated: 1
EndChar

StartChar: x
Encoding: 120 120 30
Width: 565
VWidth: 0
Flags: HW
LayerCount: 2
Fore
SplineSet
0 633 m 1
 0 801 l 1
 565 801 l 1
 565 633 l 1
 0 633 l 1
0 0 m 1
 0 168 l 1
 557 168 l 1
 557 0 l 1
 0 0 l 1
EndSplineSet
Validated: 1
EndChar

StartChar: y
Encoding: 121 121 31
Width: 565
VWidth: 0
Flags: HW
LayerCount: 2
Fore
SplineSet
0 801 m 1
 267 801 l 1
 267 633 l 1
 0 633 l 1
 0 801 l 1
290 801 m 1
 557 801 l 1
 557 0 l 1
 290 0 l 1
 290 801 l 1
0 168 m 1
 267 168 l 1
 267 0 l 1
 0 0 l 1
 0 168 l 1
EndSplineSet
Validated: 1
EndChar

StartChar: yacute
Encoding: 253 253 32
Width: 565
VWidth: 0
Flags: HW
LayerCount: 2
Fore
SplineSet
557 801 m 1
 557 633 l 1
 290 633 l 1
 290 801 l 1
 557 801 l 1
267 801 m 1
 267 0 l 1
 0 0 l 1
 0 801 l 1
 267 801 l 1
557 168 m 1
 557 0 l 1
 290 0 l 1
 290 168 l 1
 557 168 l 1
EndSplineSet
Validated: 1
EndChar

StartChar: zcaron
Encoding: 382 382 33
Width: 565
VWidth: 0
Flags: HW
LayerCount: 2
Fore
SplineSet
557 0 m 1
 290 0 l 1
 290 168 l 1
 557 168 l 1
 557 0 l 1
267 0 m 1
 0 0 l 1
 0 635 l 1
 267 635 l 1
 267 0 l 1
557 633 m 1
 290 633 l 1
 290 801 l 1
 557 801 l 1
 557 633 l 1
EndSplineSet
Validated: 1
EndChar

StartChar: uring
Encoding: 367 367 34
Width: 565
VWidth: 0
Flags: HW
LayerCount: 2
Fore
SplineSet
0 0 m 1
 0 635 l 1
 267 635 l 1
 267 0 l 1
 0 0 l 1
290 0 m 1
 290 801 l 1
 557 801 l 1
 557 0 l 1
 290 0 l 1
EndSplineSet
Validated: 1
EndChar

StartChar: aacute
Encoding: 225 225 35
Width: 565
VWidth: 0
Flags: HW
LayerCount: 2
Fore
SplineSet
0 633 m 1
 0 801 l 1
 267 801 l 1
 267 633 l 1
 0 633 l 1
290 0 m 1
 290 168 l 1
 557 168 l 1
 557 0 l 1
 290 0 l 1
EndSplineSet
Validated: 1
EndChar

StartChar: ecaron
Encoding: 283 283 36
Width: 565
VWidth: 0
Flags: HW
LayerCount: 2
Fore
SplineSet
0 177 m 1
 0 801 l 1
 267 801 l 1
 267 177 l 1
 0 177 l 1
557 0 m 1
 290 0 l 1
 290 168 l 1
 557 168 l 1
 557 0 l 1
EndSplineSet
Validated: 1
EndChar

StartChar: ccaron
Encoding: 269 269 37
Width: 565
VWidth: 0
Flags: HW
LayerCount: 2
Fore
SplineSet
565 633 m 1
 0 633 l 1
 0 801 l 1
 565 801 l 1
 565 633 l 1
565 0 m 1
 298 0 l 1
 298 168 l 1
 565 168 l 1
 565 0 l 1
EndSplineSet
Validated: 1
EndChar

StartChar: dcaron
Encoding: 271 271 38
Width: 565
VWidth: 0
Flags: HW
LayerCount: 2
Fore
SplineSet
557 801 m 1
 557 0 l 1
 290 0 l 1
 290 801 l 1
 557 801 l 1
0 801 m 1
 267 801 l 1
 267 633 l 1
 0 633 l 1
 0 801 l 1
EndSplineSet
Validated: 1
EndChar

StartChar: scaron
Encoding: 353 353 39
Width: 565
VWidth: 0
Flags: HW
LayerCount: 2
Fore
SplineSet
557 624 m 1
 557 0 l 1
 290 0 l 1
 290 624 l 1
 557 624 l 1
0 801 m 1
 267 801 l 1
 267 633 l 1
 0 633 l 1
 0 801 l 1
EndSplineSet
Validated: 1
EndChar

StartChar: ncaron
Encoding: 328 328 40
Width: 565
VWidth: 0
Flags: HW
LayerCount: 2
Fore
SplineSet
557 801 m 1
 557 633 l 1
 290 633 l 1
 290 801 l 1
 557 801 l 1
267 801 m 1
 267 166 l 1
 0 166 l 1
 0 801 l 1
 267 801 l 1
557 168 m 1
 557 0 l 1
 290 0 l 1
 290 168 l 1
 557 168 l 1
EndSplineSet
Validated: 1
EndChar

StartChar: slash
Encoding: 47 47 41
Width: 565
VWidth: 0
Flags: HW
LayerCount: 2
Fore
SplineSet
0 801 m 1
 267 801 l 1
 267 166 l 1
 0 166 l 1
 0 801 l 1
290 801 m 1
 557 801 l 1
 557 0 l 1
 290 0 l 1
 290 801 l 1
EndSplineSet
Validated: 1
EndChar

StartChar: tcaron
Encoding: 357 357 42
Width: 565
VWidth: 0
Flags: HW
LayerCount: 2
Fore
SplineSet
557 624 m 1
 557 0 l 1
 290 0 l 1
 290 624 l 1
 557 624 l 1
267 801 m 1
 267 166 l 1
 0 166 l 1
 0 801 l 1
 267 801 l 1
EndSplineSet
Validated: 1
EndChar

StartChar: oacute
Encoding: 243 243 43
Width: 565
VWidth: 0
Flags: HW
LayerCount: 2
Fore
SplineSet
267 633 m 1
 267 175 l 1
 0 175 l 1
 0 633 l 1
 267 633 l 1
557 633 m 1
 290 633 l 1
 290 801 l 1
 557 801 l 1
 557 633 l 1
557 0 m 1
 290 0 l 1
 290 168 l 1
 557 168 l 1
 557 0 l 1
EndSplineSet
Validated: 1
EndChar

StartChar: rcaron
Encoding: 345 345 44
Width: 565
VWidth: 0
Flags: HW
LayerCount: 2
Fore
SplineSet
267 633 m 1
 267 175 l 1
 0 175 l 1
 0 633 l 1
 267 633 l 1
557 0 m 1
 290 0 l 1
 290 801 l 1
 557 801 l 1
 557 0 l 1
EndSplineSet
Validated: 1
EndChar

StartChar: iacute
Encoding: 237 237 45
Width: 565
VWidth: 0
Flags: HW
LayerCount: 2
Fore
SplineSet
557 633 m 1
 290 633 l 1
 290 801 l 1
 557 801 l 1
 557 633 l 1
267 0 m 1
 0 0 l 1
 0 168 l 1
 267 168 l 1
 267 0 l 1
EndSplineSet
Validated: 1
EndChar

StartChar: eacute
Encoding: 233 233 46
Width: 565
VWidth: 0
Flags: HW
LayerCount: 2
Fore
SplineSet
557 177 m 1
 290 177 l 1
 290 801 l 1
 557 801 l 1
 557 177 l 1
0 0 m 1
 0 168 l 1
 267 168 l 1
 267 0 l 1
 0 0 l 1
EndSplineSet
Validated: 1
EndChar

StartChar: uacute
Encoding: 250 250 47
Width: 565
VWidth: 0
Flags: HW
LayerCount: 2
Fore
SplineSet
565 168 m 1
 565 0 l 1
 0 0 l 1
 0 168 l 1
 565 168 l 1
565 801 m 1
 565 633 l 1
 298 633 l 1
 298 801 l 1
 565 801 l 1
EndSplineSet
Validated: 1
EndChar

StartChar: comma
Encoding: 44 44 48
Width: 565
VWidth: 0
Flags: HW
LayerCount: 2
Fore
SplineSet
299 628 m 1
 299 167 l 1
 0 167 l 1
 0 628 l 1
 299 628 l 1
EndSplineSet
Validated: 1
EndChar

StartChar: semicolon
Encoding: 59 59 49
Width: 565
VWidth: 0
Flags: HW
LayerCount: 2
Fore
SplineSet
0 624 m 1
 267 624 l 1
 267 0 l 1
 0 0 l 1
 0 624 l 1
EndSplineSet
Validated: 1
EndChar

StartChar: colon
Encoding: 58 58 50
Width: 565
VWidth: 0
Flags: HW
LayerCount: 2
Fore
SplineSet
557 629 m 1
 557 166 l 1
 290 166 l 1
 290 629 l 1
 557 629 l 1
267 633 m 1
 267 166 l 1
 0 166 l 1
 0 633 l 1
 267 633 l 1
EndSplineSet
Validated: 1
EndChar

StartChar: plus
Encoding: 43 43 51
Width: 565
VWidth: 0
Flags: HW
LayerCount: 2
Fore
SplineSet
0 175 m 1
 0 633 l 1
 267 633 l 1
 267 175 l 1
 0 175 l 1
290 0 m 1
 290 633 l 1
 557 633 l 1
 557 0 l 1
 290 0 l 1
EndSplineSet
Validated: 1
EndChar

StartChar: question
Encoding: 63 63 52
Width: 565
VWidth: 0
Flags: HW
LayerCount: 2
Fore
SplineSet
0 177 m 1
 0 634 l 1
 267 634 l 1
 267 177 l 1
 0 177 l 1
557 0 m 1
 290 0 l 1
 290 168 l 1
 557 168 l 1
 557 0 l 1
EndSplineSet
Validated: 1
EndChar

StartChar: exclam
Encoding: 33 33 53
Width: 565
VWidth: 0
Flags: HW
LayerCount: 2
Fore
SplineSet
557 175 m 1
 290 175 l 1
 290 633 l 1
 557 633 l 1
 557 175 l 1
267 0 m 1
 0 0 l 1
 0 633 l 1
 267 633 l 1
 267 0 l 1
EndSplineSet
Validated: 1
EndChar

StartChar: quotedbl
Encoding: 34 34 54
Width: 565
VWidth: 0
Flags: HW
LayerCount: 2
Fore
SplineSet
557 634 m 1
 557 0 l 1
 290 0 l 1
 290 634 l 1
 557 634 l 1
267 634 m 1
 267 0 l 1
 0 0 l 1
 0 634 l 1
 267 634 l 1
EndSplineSet
Validated: 1
EndChar

StartChar: parenright
Encoding: 41 41 55
Width: 565
VWidth: 0
Flags: HW
LayerCount: 2
Fore
SplineSet
0 0 m 1
 0 167 l 1
 267 167 l 1
 267 0 l 1
 0 0 l 1
290 0 m 1
 290 634 l 1
 557 634 l 1
 557 0 l 1
 290 0 l 1
EndSplineSet
Validated: 1
EndChar

StartChar: parenleft
Encoding: 40 40 56
Width: 565
VWidth: 0
Flags: HW
LayerCount: 2
Fore
SplineSet
557 0 m 1
 290 0 l 1
 290 167 l 1
 557 167 l 1
 557 0 l 1
267 0 m 1
 0 0 l 1
 0 634 l 1
 267 634 l 1
 267 0 l 1
EndSplineSet
Validated: 1
EndChar

StartChar: asterisk
Encoding: 42 42 57
Width: 565
VWidth: 0
Flags: HW
LayerCount: 2
Fore
SplineSet
557 177 m 1
 290 177 l 1
 290 634 l 1
 557 634 l 1
 557 177 l 1
0 0 m 1
 0 168 l 1
 267 168 l 1
 267 0 l 1
 0 0 l 1
EndSplineSet
Validated: 1
EndChar

StartChar: period
Encoding: 46 46 58
Width: 565
VWidth: 0
Flags: HW
LayerCount: 2
Fore
SplineSet
0 0 m 1
 0 168 l 1
 267 168 l 1
 267 0 l 1
 0 0 l 1
EndSplineSet
Validated: 1
EndChar

StartChar: hyphen
Encoding: 45 45 59
Width: 565
VWidth: 0
Flags: HW
LayerCount: 2
Fore
SplineSet
0 0 m 1
 0 168 l 1
 565 168 l 1
 565 0 l 1
 0 0 l 1
EndSplineSet
Validated: 1
EndChar

StartChar: grave
Encoding: 96 96 60
Width: 565
VWidth: 0
Flags: HW
LayerCount: 2
Fore
SplineSet
565 801 m 1
 565 633 l 1
 298 633 l 1
 298 801 l 1
 565 801 l 1
EndSplineSet
Validated: 1
EndChar

StartChar: bar
Encoding: 124 124 61
Width: 565
VWidth: 0
Flags: HW
LayerCount: 2
Fore
SplineSet
298 801 m 1
 565 801 l 1
 565 0 l 1
 298 0 l 1
 298 801 l 1
EndSplineSet
Validated: 1
EndChar

StartChar: one
Encoding: 49 49 62
Width: 1130
VWidth: 0
Flags: HW
LayerCount: 2
Fore
SplineSet
565 801 m 1
 832 801 l 1
 832 633 l 1
 565 633 l 1
 565 801 l 1
557 0 m 1
 290 0 l 1
 290 801 l 1
 557 801 l 1
 557 0 l 1
0 0 m 1
 0 168 l 1
 267 168 l 1
 267 0 l 1
 0 0 l 1
EndSplineSet
Validated: 1
EndChar

StartChar: two
Encoding: 50 50 63
Width: 1130
VWidth: 0
Flags: HW
LayerCount: 2
Fore
SplineSet
565 801 m 1
 832 801 l 1
 832 166 l 1
 565 166 l 1
 565 801 l 1
557 0 m 1
 290 0 l 1
 290 801 l 1
 557 801 l 1
 557 0 l 1
0 0 m 1
 0 168 l 1
 267 168 l 1
 267 0 l 1
 0 0 l 1
EndSplineSet
Validated: 1
EndChar

StartChar: three
Encoding: 51 51 64
Width: 1131
VWidth: 0
Flags: HW
LayerCount: 2
Fore
SplineSet
565 801 m 1
 1130 801 l 1
 1130 633 l 1
 565 633 l 1
 565 801 l 1
557 0 m 1
 290 0 l 1
 290 801 l 1
 557 801 l 1
 557 0 l 1
0 0 m 1
 0 168 l 1
 267 168 l 1
 267 0 l 1
 0 0 l 1
EndSplineSet
Validated: 1
EndChar

StartChar: four
Encoding: 52 52 65
Width: 1130
VWidth: 0
Flags: HW
LayerCount: 2
Fore
SplineSet
565 801 m 1
 832 801 l 1
 832 633 l 1
 565 633 l 1
 565 801 l 1
855 801 m 1
 1122 801 l 1
 1122 166 l 1
 855 166 l 1
 855 801 l 1
557 0 m 1
 290 0 l 1
 290 801 l 1
 557 801 l 1
 557 0 l 1
0 0 m 1
 0 168 l 1
 267 168 l 1
 267 0 l 1
 0 0 l 1
EndSplineSet
Validated: 1
EndChar

StartChar: five
Encoding: 53 53 66
Width: 1131
VWidth: 0
Flags: HW
LayerCount: 2
Fore
SplineSet
565 801 m 1
 832 801 l 1
 832 633 l 1
 565 633 l 1
 565 801 l 1
831 628 m 1
 1130 628 l 1
 1130 167 l 1
 831 167 l 1
 831 628 l 1
557 0 m 1
 290 0 l 1
 290 801 l 1
 557 801 l 1
 557 0 l 1
0 0 m 1
 0 168 l 1
 267 168 l 1
 267 0 l 1
 0 0 l 1
EndSplineSet
Validated: 1
EndChar

StartChar: six
Encoding: 54 54 67
Width: 1130
VWidth: 0
Flags: HW
LayerCount: 2
Fore
SplineSet
1122 801 m 1
 1122 633 l 1
 855 633 l 1
 855 801 l 1
 1122 801 l 1
832 801 m 1
 832 166 l 1
 565 166 l 1
 565 801 l 1
 832 801 l 1
557 0 m 1
 290 0 l 1
 290 801 l 1
 557 801 l 1
 557 0 l 1
0 0 m 1
 0 168 l 1
 267 168 l 1
 267 0 l 1
 0 0 l 1
EndSplineSet
Validated: 1
EndChar

StartChar: seven
Encoding: 55 55 68
Width: 1131
VWidth: 0
Flags: HW
LayerCount: 2
Fore
SplineSet
1122 801 m 1
 1122 166 l 1
 855 166 l 1
 855 801 l 1
 1122 801 l 1
832 801 m 1
 832 166 l 1
 565 166 l 1
 565 801 l 1
 832 801 l 1
557 0 m 1
 290 0 l 1
 290 801 l 1
 557 801 l 1
 557 0 l 1
0 0 m 1
 0 168 l 1
 267 168 l 1
 267 0 l 1
 0 0 l 1
EndSplineSet
Validated: 1
EndChar

StartChar: eight
Encoding: 56 56 69
Width: 1131
VWidth: 0
Flags: HW
LayerCount: 2
Fore
SplineSet
1122 624 m 1
 1122 166 l 1
 855 166 l 1
 855 624 l 1
 1122 624 l 1
832 801 m 1
 832 166 l 1
 565 166 l 1
 565 801 l 1
 832 801 l 1
557 0 m 1
 290 0 l 1
 290 801 l 1
 557 801 l 1
 557 0 l 1
0 0 m 1
 0 168 l 1
 267 168 l 1
 267 0 l 1
 0 0 l 1
EndSplineSet
Validated: 1
EndChar

StartChar: nine
Encoding: 57 57 70
Width: 1131
VWidth: 0
Flags: HW
LayerCount: 2
Fore
SplineSet
1130 801 m 1
 1130 633 l 1
 863 633 l 1
 863 801 l 1
 1130 801 l 1
864 628 m 1
 864 167 l 1
 565 167 l 1
 565 628 l 1
 864 628 l 1
557 0 m 1
 290 0 l 1
 290 801 l 1
 557 801 l 1
 557 0 l 1
0 0 m 1
 0 168 l 1
 267 168 l 1
 267 0 l 1
 0 0 l 1
EndSplineSet
Validated: 1
EndChar

StartChar: zero
Encoding: 48 48 71
Width: 1131
VWidth: 0
Flags: HW
LayerCount: 2
Fore
SplineSet
565 624 m 1
 832 624 l 1
 832 166 l 1
 565 166 l 1
 565 624 l 1
855 801 m 1
 1122 801 l 1
 1122 166 l 1
 855 166 l 1
 855 801 l 1
557 0 m 1
 290 0 l 1
 290 801 l 1
 557 801 l 1
 557 0 l 1
0 0 m 1
 0 168 l 1
 267 168 l 1
 267 0 l 1
 0 0 l 1
EndSplineSet
Validated: 1
EndChar

StartChar: F
Encoding: 70 70 72
Width: 1779
VWidth: 0
Flags: HW
LayerCount: 2
Fore
SplineSet
0 800 m 5
 1057 800 l 5
 1057 633 l 5
 0 633 l 5
 0 800 l 5
0 167 m 5
 1057 167 l 5
 1057 0 l 5
 0 0 l 5
 0 167 l 5
1814 801 m 1
 1814 633 l 1
 1547 633 l 1
 1547 801 l 1
 1814 801 l 1
1524 801 m 1
 1524 166 l 1
 1257 166 l 1
 1257 801 l 1
 1524 801 l 1
EndSplineSet
Validated: 1
EndChar

StartChar: G
Encoding: 71 71 73
Width: 1779
VWidth: 0
Flags: HW
LayerCount: 2
Fore
SplineSet
0 800 m 5
 1057 800 l 5
 1057 633 l 5
 0 633 l 5
 0 800 l 5
0 167 m 5
 1057 167 l 5
 1057 0 l 5
 0 0 l 5
 0 167 l 5
1814 801 m 1
 1814 166 l 1
 1547 166 l 1
 1547 801 l 1
 1814 801 l 1
1524 801 m 1
 1524 166 l 1
 1257 166 l 1
 1257 801 l 1
 1524 801 l 1
EndSplineSet
Validated: 1
EndChar

StartChar: H
Encoding: 72 72 74
Width: 1779
VWidth: 0
Flags: HW
LayerCount: 2
Fore
SplineSet
0 800 m 5
 1057 800 l 5
 1057 633 l 5
 0 633 l 5
 0 800 l 5
0 167 m 5
 1057 167 l 5
 1057 0 l 5
 0 0 l 5
 0 167 l 5
1814 624 m 1
 1814 166 l 1
 1547 166 l 1
 1547 624 l 1
 1814 624 l 1
1524 801 m 1
 1524 166 l 1
 1257 166 l 1
 1257 801 l 1
 1524 801 l 1
EndSplineSet
Validated: 1
EndChar

StartChar: I
Encoding: 73 73 75
Width: 1779
VWidth: 0
Flags: HW
LayerCount: 2
Fore
SplineSet
0 800 m 5
 1057 800 l 5
 1057 633 l 5
 0 633 l 5
 0 800 l 5
0 167 m 5
 1057 167 l 5
 1057 0 l 5
 0 0 l 5
 0 167 l 5
1822 801 m 1
 1822 633 l 1
 1555 633 l 1
 1555 801 l 1
 1822 801 l 1
1556 628 m 1
 1556 167 l 1
 1257 167 l 1
 1257 628 l 1
 1556 628 l 1
EndSplineSet
Validated: 1
EndChar

StartChar: J
Encoding: 74 74 76
Width: 1779
VWidth: 0
Flags: HW
LayerCount: 2
Fore
SplineSet
0 800 m 5
 1057 800 l 5
 1057 633 l 5
 0 633 l 5
 0 800 l 5
0 167 m 5
 1057 167 l 5
 1057 0 l 5
 0 0 l 5
 0 167 l 5
1257 624 m 1
 1524 624 l 1
 1524 166 l 1
 1257 166 l 1
 1257 624 l 1
1547 801 m 1
 1814 801 l 1
 1814 166 l 1
 1547 166 l 1
 1547 801 l 1
EndSplineSet
Validated: 1
EndChar

StartChar: K
Encoding: 75 75 77
Width: 1779
VWidth: 0
Flags: HW
LayerCount: 2
Fore
SplineSet
0 800 m 5
 1057 800 l 5
 1057 633 l 5
 0 633 l 5
 0 800 l 5
0 167 m 5
 1057 167 l 5
 1057 0 l 5
 0 0 l 5
 0 167 l 5
1257 0 m 1
 1257 168 l 1
 1524 168 l 1
 1524 0 l 1
 1257 0 l 1
1257 633 m 1
 1257 801 l 1
 1524 801 l 1
 1524 633 l 1
 1257 633 l 1
EndSplineSet
Validated: 1
EndChar

StartChar: L
Encoding: 76 76 78
Width: 1779
VWidth: 0
Flags: HW
LayerCount: 2
Fore
SplineSet
0 800 m 5
 1057 800 l 5
 1057 633 l 5
 0 633 l 5
 0 800 l 5
0 167 m 5
 1057 167 l 5
 1057 0 l 5
 0 0 l 5
 0 167 l 5
1257 801 m 1
 1524 801 l 1
 1524 0 l 1
 1257 0 l 1
 1257 801 l 1
EndSplineSet
Validated: 1
EndChar

StartChar: M
Encoding: 77 77 79
Width: 1779
VWidth: 0
Flags: HW
LayerCount: 2
Fore
SplineSet
0 800 m 5
 1057 800 l 5
 1057 633 l 5
 0 633 l 5
 0 800 l 5
0 167 m 5
 1057 167 l 5
 1057 0 l 5
 0 0 l 5
 0 167 l 5
1257 633 m 1
 1257 801 l 1
 1822 801 l 1
 1822 633 l 1
 1257 633 l 1
1257 0 m 1
 1257 168 l 1
 1524 168 l 1
 1524 0 l 1
 1257 0 l 1
EndSplineSet
Validated: 1
EndChar

StartChar: N
Encoding: 78 78 80
Width: 1779
VWidth: 0
Flags: HW
LayerCount: 2
Fore
SplineSet
0 800 m 5
 1057 800 l 5
 1057 633 l 5
 0 633 l 5
 0 800 l 5
0 167 m 5
 1057 167 l 5
 1057 0 l 5
 0 0 l 5
 0 167 l 5
1257 801 m 1
 1524 801 l 1
 1524 633 l 1
 1257 633 l 1
 1257 801 l 1
1547 801 m 1
 1814 801 l 1
 1814 166 l 1
 1547 166 l 1
 1547 801 l 1
1257 168 m 1
 1524 168 l 1
 1524 0 l 1
 1257 0 l 1
 1257 168 l 1
EndSplineSet
Validated: 1
EndChar

StartChar: O
Encoding: 79 79 81
Width: 1779
VWidth: 0
Flags: HW
LayerCount: 2
Fore
SplineSet
0 800 m 5
 1057 800 l 5
 1057 633 l 5
 0 633 l 5
 0 800 l 5
0 167 m 5
 1057 167 l 5
 1057 0 l 5
 0 0 l 5
 0 167 l 5
1547 633 m 1
 1814 633 l 1
 1814 175 l 1
 1547 175 l 1
 1547 633 l 1
1257 633 m 1
 1257 801 l 1
 1524 801 l 1
 1524 633 l 1
 1257 633 l 1
1257 0 m 1
 1257 168 l 1
 1524 168 l 1
 1524 0 l 1
 1257 0 l 1
EndSplineSet
Validated: 1
EndChar

StartChar: P
Encoding: 80 80 82
Width: 1779
VWidth: 0
Flags: HW
LayerCount: 2
Fore
SplineSet
0 800 m 5
 1057 800 l 5
 1057 633 l 5
 0 633 l 5
 0 800 l 5
0 167 m 5
 1057 167 l 5
 1057 0 l 5
 0 0 l 5
 0 167 l 5
1257 801 m 1
 1524 801 l 1
 1524 0 l 1
 1257 0 l 1
 1257 801 l 1
1814 801 m 1
 1814 633 l 1
 1547 633 l 1
 1547 801 l 1
 1814 801 l 1
EndSplineSet
Validated: 1
EndChar

StartChar: Q
Encoding: 81 81 83
Width: 1779
VWidth: 0
Flags: HW
LayerCount: 2
Fore
SplineSet
0 800 m 5
 1057 800 l 5
 1057 633 l 5
 0 633 l 5
 0 800 l 5
0 167 m 5
 1057 167 l 5
 1057 0 l 5
 0 0 l 5
 0 167 l 5
1814 801 m 1
 1814 166 l 1
 1547 166 l 1
 1547 801 l 1
 1814 801 l 1
1524 801 m 1
 1524 0 l 1
 1257 0 l 1
 1257 801 l 1
 1524 801 l 1
EndSplineSet
Validated: 1
EndChar

StartChar: R
Encoding: 82 82 84
Width: 1779
VWidth: 0
Flags: HW
LayerCount: 2
Fore
SplineSet
0 800 m 5
 1057 800 l 5
 1057 633 l 5
 0 633 l 5
 0 800 l 5
0 167 m 5
 1057 167 l 5
 1057 0 l 5
 0 0 l 5
 0 167 l 5
1547 633 m 1
 1814 633 l 1
 1814 175 l 1
 1547 175 l 1
 1547 633 l 1
1257 0 m 1
 1257 801 l 1
 1524 801 l 1
 1524 0 l 1
 1257 0 l 1
EndSplineSet
Validated: 1
EndChar

StartChar: S
Encoding: 83 83 85
Width: 1779
VWidth: 0
Flags: HW
LayerCount: 2
Fore
SplineSet
0 800 m 5
 1057 800 l 5
 1057 633 l 5
 0 633 l 5
 0 800 l 5
0 167 m 5
 1057 167 l 5
 1057 0 l 5
 0 0 l 5
 0 167 l 5
1257 624 m 1
 1524 624 l 1
 1524 0 l 1
 1257 0 l 1
 1257 624 l 1
1814 801 m 1
 1814 633 l 1
 1547 633 l 1
 1547 801 l 1
 1814 801 l 1
EndSplineSet
Validated: 1
EndChar

StartChar: T
Encoding: 84 84 86
Width: 1779
VWidth: 0
Flags: HW
LayerCount: 2
Fore
SplineSet
0 800 m 5
 1057 800 l 5
 1057 633 l 5
 0 633 l 5
 0 800 l 5
0 167 m 5
 1057 167 l 5
 1057 0 l 5
 0 0 l 5
 0 167 l 5
1257 624 m 1
 1524 624 l 1
 1524 0 l 1
 1257 0 l 1
 1257 624 l 1
1547 801 m 1
 1814 801 l 1
 1814 166 l 1
 1547 166 l 1
 1547 801 l 1
EndSplineSet
Validated: 1
EndChar

StartChar: U
Encoding: 85 85 87
Width: 1779
VWidth: 0
Flags: HW
LayerCount: 2
Fore
SplineSet
0 800 m 5
 1057 800 l 5
 1057 633 l 5
 0 633 l 5
 0 800 l 5
0 167 m 5
 1057 167 l 5
 1057 0 l 5
 0 0 l 5
 0 167 l 5
1257 168 m 1
 1822 168 l 1
 1822 0 l 1
 1257 0 l 1
 1257 168 l 1
1257 801 m 1
 1524 801 l 1
 1524 633 l 1
 1257 633 l 1
 1257 801 l 1
EndSplineSet
Validated: 1
EndChar

StartChar: V
Encoding: 86 86 88
Width: 1779
VWidth: 0
Flags: HW
LayerCount: 2
Fore
SplineSet
0 800 m 5
 1057 800 l 5
 1057 633 l 5
 0 633 l 5
 0 800 l 5
0 167 m 5
 1057 167 l 5
 1057 0 l 5
 0 0 l 5
 0 167 l 5
1257 0 m 1
 1257 801 l 1
 1524 801 l 1
 1524 0 l 1
 1257 0 l 1
1814 0 m 1
 1547 0 l 1
 1547 168 l 1
 1814 168 l 1
 1814 0 l 1
EndSplineSet
Validated: 1
EndChar

StartChar: W
Encoding: 87 87 89
Width: 1779
VWidth: 0
Flags: HW
LayerCount: 2
Fore
SplineSet
0 800 m 5
 1057 800 l 5
 1057 633 l 5
 0 633 l 5
 0 800 l 5
0 167 m 5
 1057 167 l 5
 1057 0 l 5
 0 0 l 5
 0 167 l 5
1814 0 m 1
 1547 0 l 1
 1547 635 l 1
 1814 635 l 1
 1814 0 l 1
1524 0 m 1
 1257 0 l 1
 1257 801 l 1
 1524 801 l 1
 1524 0 l 1
EndSplineSet
Validated: 1
EndChar

StartChar: X
Encoding: 88 88 90
Width: 1779
VWidth: 0
Flags: HW
LayerCount: 2
Fore
SplineSet
0 800 m 5
 1057 800 l 5
 1057 633 l 5
 0 633 l 5
 0 800 l 5
0 167 m 5
 1057 167 l 5
 1057 0 l 5
 0 0 l 5
 0 167 l 5
1257 633 m 1
 1257 801 l 1
 1822 801 l 1
 1822 633 l 1
 1257 633 l 1
1257 0 m 1
 1257 168 l 1
 1814 168 l 1
 1814 0 l 1
 1257 0 l 1
EndSplineSet
Validated: 1
EndChar

StartChar: Y
Encoding: 89 89 91
Width: 1779
VWidth: 0
Flags: HW
LayerCount: 2
Fore
SplineSet
0 800 m 5
 1057 800 l 5
 1057 633 l 5
 0 633 l 5
 0 800 l 5
0 167 m 5
 1057 167 l 5
 1057 0 l 5
 0 0 l 5
 0 167 l 5
1257 801 m 1
 1524 801 l 1
 1524 633 l 1
 1257 633 l 1
 1257 801 l 1
1547 801 m 1
 1814 801 l 1
 1814 0 l 1
 1547 0 l 1
 1547 801 l 1
1257 168 m 1
 1524 168 l 1
 1524 0 l 1
 1257 0 l 1
 1257 168 l 1
EndSplineSet
Validated: 1
EndChar

StartChar: Z
Encoding: 90 90 92
Width: 1779
VWidth: 0
Flags: HW
LayerCount: 2
Fore
SplineSet
0 800 m 5
 1057 800 l 5
 1057 633 l 5
 0 633 l 5
 0 800 l 5
0 167 m 5
 1057 167 l 5
 1057 0 l 5
 0 0 l 5
 0 167 l 5
1257 0 m 1
 1257 168 l 1
 1524 168 l 1
 1524 0 l 1
 1257 0 l 1
1547 0 m 1
 1547 635 l 1
 1814 635 l 1
 1814 0 l 1
 1547 0 l 1
1257 633 m 1
 1257 801 l 1
 1524 801 l 1
 1524 633 l 1
 1257 633 l 1
EndSplineSet
Validated: 1
EndChar

StartChar: Aacute
Encoding: 193 193 93
Width: 1779
VWidth: 0
Flags: HW
LayerCount: 2
Fore
SplineSet
0 800 m 5
 1057 800 l 5
 1057 633 l 5
 0 633 l 5
 0 800 l 5
0 167 m 5
 1057 167 l 5
 1057 0 l 5
 0 0 l 5
 0 167 l 5
1257 633 m 1
 1257 801 l 1
 1524 801 l 1
 1524 633 l 1
 1257 633 l 1
1547 0 m 1
 1547 168 l 1
 1814 168 l 1
 1814 0 l 1
 1547 0 l 1
EndSplineSet
Validated: 1
EndChar

StartChar: Eacute
Encoding: 201 201 94
Width: 1779
VWidth: 0
Flags: HW
LayerCount: 2
Fore
SplineSet
0 800 m 5
 1057 800 l 5
 1057 633 l 5
 0 633 l 5
 0 800 l 5
0 167 m 5
 1057 167 l 5
 1057 0 l 5
 0 0 l 5
 0 167 l 5
1814 177 m 1
 1547 177 l 1
 1547 801 l 1
 1814 801 l 1
 1814 177 l 1
1257 0 m 1
 1257 168 l 1
 1524 168 l 1
 1524 0 l 1
 1257 0 l 1
EndSplineSet
Validated: 1
EndChar

StartChar: Iacute
Encoding: 205 205 95
Width: 1779
VWidth: 0
Flags: HW
LayerCount: 2
Fore
SplineSet
0 800 m 5
 1057 800 l 5
 1057 633 l 5
 0 633 l 5
 0 800 l 5
0 167 m 5
 1057 167 l 5
 1057 0 l 5
 0 0 l 5
 0 167 l 5
1814 633 m 1
 1547 633 l 1
 1547 801 l 1
 1814 801 l 1
 1814 633 l 1
1524 0 m 1
 1257 0 l 1
 1257 168 l 1
 1524 168 l 1
 1524 0 l 1
EndSplineSet
Validated: 1
EndChar

StartChar: Oacute
Encoding: 211 211 96
Width: 1779
VWidth: 0
Flags: HW
LayerCount: 2
Fore
SplineSet
0 800 m 5
 1057 800 l 5
 1057 633 l 5
 0 633 l 5
 0 800 l 5
0 167 m 5
 1057 167 l 5
 1057 0 l 5
 0 0 l 5
 0 167 l 5
1524 633 m 1
 1524 175 l 1
 1257 175 l 1
 1257 633 l 1
 1524 633 l 1
1814 633 m 1
 1547 633 l 1
 1547 801 l 1
 1814 801 l 1
 1814 633 l 1
1814 0 m 1
 1547 0 l 1
 1547 168 l 1
 1814 168 l 1
 1814 0 l 1
EndSplineSet
Validated: 1
EndChar

StartChar: Uacute
Encoding: 218 218 97
Width: 1779
VWidth: 0
Flags: HW
LayerCount: 2
Fore
SplineSet
0 800 m 5
 1057 800 l 5
 1057 633 l 5
 0 633 l 5
 0 800 l 5
0 167 m 5
 1057 167 l 5
 1057 0 l 5
 0 0 l 5
 0 167 l 5
1822 168 m 1
 1822 0 l 1
 1257 0 l 1
 1257 168 l 1
 1822 168 l 1
1822 801 m 1
 1822 633 l 1
 1555 633 l 1
 1555 801 l 1
 1822 801 l 1
EndSplineSet
Validated: 1
EndChar

StartChar: Yacute
Encoding: 221 221 98
Width: 1779
VWidth: 0
Flags: HW
LayerCount: 2
Fore
SplineSet
0 800 m 5
 1057 800 l 5
 1057 633 l 5
 0 633 l 5
 0 800 l 5
0 167 m 5
 1057 167 l 5
 1057 0 l 5
 0 0 l 5
 0 167 l 5
1814 801 m 1
 1814 633 l 1
 1547 633 l 1
 1547 801 l 1
 1814 801 l 1
1524 801 m 1
 1524 0 l 1
 1257 0 l 1
 1257 801 l 1
 1524 801 l 1
1814 168 m 1
 1814 0 l 1
 1547 0 l 1
 1547 168 l 1
 1814 168 l 1
EndSplineSet
Validated: 1
EndChar

StartChar: Ccaron
Encoding: 268 268 99
Width: 1779
VWidth: 0
Flags: HW
LayerCount: 2
Fore
SplineSet
0 800 m 5
 1057 800 l 5
 1057 633 l 5
 0 633 l 5
 0 800 l 5
0 167 m 5
 1057 167 l 5
 1057 0 l 5
 0 0 l 5
 0 167 l 5
1814 801 m 1
 1814 633 l 1
 1547 633 l 1
 1547 801 l 1
 1814 801 l 1
1524 801 m 1
 1524 0 l 1
 1257 0 l 1
 1257 801 l 1
 1524 801 l 1
1814 168 m 1
 1814 0 l 1
 1547 0 l 1
 1547 168 l 1
 1814 168 l 1
EndSplineSet
Validated: 1
EndChar

StartChar: Dcaron
Encoding: 270 270 100
Width: 1779
VWidth: 0
Flags: HW
LayerCount: 2
Fore
SplineSet
0 800 m 5
 1057 800 l 5
 1057 633 l 5
 0 633 l 5
 0 800 l 5
0 167 m 5
 1057 167 l 5
 1057 0 l 5
 0 0 l 5
 0 167 l 5
1814 801 m 1
 1814 0 l 1
 1547 0 l 1
 1547 801 l 1
 1814 801 l 1
1257 801 m 1
 1524 801 l 1
 1524 633 l 1
 1257 633 l 1
 1257 801 l 1
EndSplineSet
Validated: 1
EndChar

StartChar: Ecaron
Encoding: 282 282 101
Width: 1779
VWidth: 0
Flags: HW
LayerCount: 2
Fore
SplineSet
0 800 m 5
 1057 800 l 5
 1057 633 l 5
 0 633 l 5
 0 800 l 5
0 167 m 5
 1057 167 l 5
 1057 0 l 5
 0 0 l 5
 0 167 l 5
1257 177 m 1
 1257 801 l 1
 1524 801 l 1
 1524 177 l 1
 1257 177 l 1
1814 0 m 1
 1547 0 l 1
 1547 168 l 1
 1814 168 l 1
 1814 0 l 1
EndSplineSet
Validated: 1
EndChar

StartChar: Rcaron
Encoding: 344 344 102
Width: 1779
VWidth: 0
Flags: HW
LayerCount: 2
Fore
SplineSet
0 800 m 5
 1057 800 l 5
 1057 633 l 5
 0 633 l 5
 0 800 l 5
0 167 m 5
 1057 167 l 5
 1057 0 l 5
 0 0 l 5
 0 167 l 5
1524 633 m 1
 1524 175 l 1
 1257 175 l 1
 1257 633 l 1
 1524 633 l 1
1814 0 m 1
 1547 0 l 1
 1547 801 l 1
 1814 801 l 1
 1814 0 l 1
EndSplineSet
Validated: 1
EndChar

StartChar: Ncaron
Encoding: 327 327 103
Width: 1779
VWidth: 0
Flags: HW
LayerCount: 2
Fore
SplineSet
0 800 m 5
 1057 800 l 5
 1057 633 l 5
 0 633 l 5
 0 800 l 5
0 167 m 5
 1057 167 l 5
 1057 0 l 5
 0 0 l 5
 0 167 l 5
1814 801 m 1
 1814 633 l 1
 1547 633 l 1
 1547 801 l 1
 1814 801 l 1
1524 801 m 1
 1524 166 l 1
 1257 166 l 1
 1257 801 l 1
 1524 801 l 1
1814 168 m 1
 1814 0 l 1
 1547 0 l 1
 1547 168 l 1
 1814 168 l 1
EndSplineSet
Validated: 1
EndChar

StartChar: Uring
Encoding: 366 366 104
Width: 1779
VWidth: 0
Flags: HW
LayerCount: 2
Fore
SplineSet
0 800 m 5
 1057 800 l 5
 1057 633 l 5
 0 633 l 5
 0 800 l 5
0 167 m 5
 1057 167 l 5
 1057 0 l 5
 0 0 l 5
 0 167 l 5
1257 0 m 1
 1257 635 l 1
 1524 635 l 1
 1524 0 l 1
 1257 0 l 1
1547 0 m 1
 1547 801 l 1
 1814 801 l 1
 1814 0 l 1
 1547 0 l 1
EndSplineSet
Validated: 1
EndChar

StartChar: Zcaron
Encoding: 381 381 105
Width: 1779
VWidth: 0
Flags: HW
LayerCount: 2
Fore
SplineSet
0 800 m 5
 1057 800 l 5
 1057 633 l 5
 0 633 l 5
 0 800 l 5
0 167 m 5
 1057 167 l 5
 1057 0 l 5
 0 0 l 5
 0 167 l 5
1814 0 m 1
 1547 0 l 1
 1547 168 l 1
 1814 168 l 1
 1814 0 l 1
1524 0 m 1
 1257 0 l 1
 1257 635 l 1
 1524 635 l 1
 1524 0 l 1
1814 633 m 1
 1547 633 l 1
 1547 801 l 1
 1814 801 l 1
 1814 633 l 1
EndSplineSet
Validated: 1
EndChar

StartChar: Scaron
Encoding: 352 352 106
Width: 1779
VWidth: 0
Flags: HW
LayerCount: 2
Fore
SplineSet
0 800 m 5
 1057 800 l 5
 1057 633 l 5
 0 633 l 5
 0 800 l 5
0 167 m 5
 1057 167 l 5
 1057 0 l 5
 0 0 l 5
 0 167 l 5
1814 624 m 1
 1814 0 l 1
 1547 0 l 1
 1547 624 l 1
 1814 624 l 1
1257 801 m 1
 1524 801 l 1
 1524 633 l 1
 1257 633 l 1
 1257 801 l 1
EndSplineSet
Validated: 1
EndChar

StartChar: Tcaron
Encoding: 356 356 107
Width: 1779
VWidth: 0
Flags: HW
LayerCount: 2
Fore
SplineSet
0 800 m 5
 1057 800 l 5
 1057 633 l 5
 0 633 l 5
 0 800 l 5
0 167 m 5
 1057 167 l 5
 1057 0 l 5
 0 0 l 5
 0 167 l 5
1814 624 m 1
 1814 0 l 1
 1547 0 l 1
 1547 624 l 1
 1814 624 l 1
1524 801 m 1
 1524 166 l 1
 1257 166 l 1
 1257 801 l 1
 1524 801 l 1
EndSplineSet
Validated: 1
EndChar
